<?xml version="1.0" standalone="no"?>
<!DOCTYPE svg PUBLIC "-//W3C//DTD SVG 20010904//EN"
 "http://www.w3.org/TR/2001/REC-SVG-20010904/DTD/svg10.dtd">
<svg version="1.0" xmlns="http://www.w3.org/2000/svg"
 width="531.000000pt" height="531.000000pt" viewBox="0 0 531.000000 531.000000"
 preserveAspectRatio="xMidYMid meet">
<metadata>
Created by potrace 1.14, written by Peter Selinger 2001-2017
</metadata>
<g transform="translate(0.000000,531.000000) scale(0.100000,-0.100000)"
fill="#000000" stroke="none">
<path d="M3037 4580 c-118 -30 -253 -147 -312 -272 -20 -41 -39 -94 -43 -119
l-8 -44 -56 3 c-64 4 -115 -17 -178 -74 -61 -55 -107 -169 -125 -311 -7 -51
-17 -65 -30 -43 -10 16 -98 58 -138 65 -29 6 -38 4 -43 -10 -8 -20 22 -169 40
-204 11 -20 10 -26 -11 -47 -16 -16 -23 -35 -23 -62 0 -49 24 -72 76 -72 32 0
44 6 66 32 l27 33 1 -32 c0 -35 -35 -247 -51 -306 l-10 -38 -37 33 c-164 148
-364 193 -515 116 -130 -66 -217 -223 -217 -391 0 -67 20 -97 64 -97 48 0 62
23 70 115 18 239 192 343 401 240 28 -13 73 -45 100 -70 45 -40 47 -44 23 -39
-33 7 -51 7 -141 1 -60 -4 -73 -9 -101 -36 -18 -17 -39 -31 -49 -31 -9 0 -32
-16 -51 -35 -19 -19 -46 -37 -60 -41 -36 -9 -86 -69 -86 -103 0 -16 5 -52 10
-82 l10 -53 -40 -41 c-32 -33 -40 -48 -40 -78 0 -106 115 -217 224 -217 36 0
50 6 75 30 16 17 32 27 34 23 2 -5 8 -52 11 -107 8 -109 34 -224 65 -285 12
-22 21 -43 21 -46 0 -3 -39 25 -87 61 -149 114 -283 164 -439 164 -169 0 -317
-60 -429 -174 -117 -119 -186 -266 -201 -429 -11 -121 3 -127 40 -17 32 96 64
163 52 110 -27 -120 -38 -223 -33 -315 17 -294 164 -509 468 -681 33 -18 59
-31 59 -28 0 3 -26 35 -58 70 -64 71 -126 167 -120 185 2 7 19 -11 37 -39 32
-50 134 -152 151 -152 5 0 -7 33 -26 74 -19 41 -34 80 -34 87 0 6 36 -23 79
-64 46 -44 106 -89 140 -107 34 -17 61 -29 61 -27 0 2 -16 34 -35 73 -19 38
-35 75 -35 82 0 7 26 -9 58 -35 31 -27 69 -57 84 -66 37 -23 129 -59 135 -53
3 3 -5 21 -17 41 -12 20 -20 39 -17 42 3 3 27 -13 54 -34 88 -73 150 -102 139
-65 -3 9 -7 51 -11 92 l-5 75 17 -47 c10 -26 21 -49 24 -52 3 -4 14 12 24 34
11 25 21 36 25 29 5 -7 30 7 75 42 50 39 69 49 75 39 6 -10 25 -4 82 30 119
71 239 153 330 229 48 39 89 71 91 71 2 0 7 -17 10 -38 4 -20 21 -89 38 -154
29 -105 31 -118 17 -132 -18 -17 -11 -76 16 -140 14 -34 14 -36 -5 -36 -26 0
-69 -23 -92 -48 -11 -12 -42 -29 -69 -39 -38 -13 -57 -28 -74 -55 -13 -20 -28
-39 -34 -43 -11 -7 -14 -64 -4 -89 10 -27 372 -21 567 10 34 5 37 9 37 37 -1
41 -33 113 -57 125 -27 15 -54 110 -56 203 -2 69 -5 84 -24 98 -19 16 -21 29
-25 162 -3 125 -6 149 -26 186 -31 59 -31 176 -1 236 l22 42 15 -35 c9 -19 41
-89 72 -156 31 -66 60 -140 63 -165 4 -24 29 -100 56 -169 46 -115 49 -126 34
-142 -14 -16 -13 -24 12 -94 16 -43 36 -85 45 -94 12 -12 19 -43 24 -108 7
-85 6 -93 -14 -114 -18 -20 -20 -30 -15 -73 8 -57 16 -66 99 -106 80 -38 154
-52 251 -47 101 6 173 36 221 92 33 38 35 45 29 86 -4 25 -15 64 -25 88 -18
40 -21 42 -60 42 -46 0 -140 43 -140 64 0 17 -52 62 -82 71 -40 12 -58 36 -58
75 0 40 -26 138 -42 157 -6 7 -19 13 -29 13 -11 0 -19 2 -19 4 0 22 -54 255
-69 297 -10 31 -22 87 -26 124 l-7 66 83 -45 c100 -53 206 -90 315 -109 43 -8
97 -23 119 -34 22 -11 51 -24 65 -28 l25 -7 -22 24 c-13 13 -23 27 -23 31 0
16 81 5 138 -18 34 -14 68 -25 76 -25 7 0 23 23 35 50 12 28 28 50 35 50 28 0
193 90 261 143 98 75 186 183 245 302 66 131 83 215 77 365 -5 123 -28 209
-82 309 -26 47 -26 49 -11 94 19 55 13 98 -20 147 -12 19 -30 69 -39 112 -71
348 -277 568 -625 669 -115 34 -231 50 -396 56 l-162 6 -11 37 c-6 21 -11 58
-11 84 0 26 -7 62 -14 81 -14 34 -14 35 7 36 16 0 8 7 -27 24 -77 39 -85 49
-73 95 l11 39 45 -38 c82 -68 126 -86 216 -86 176 0 289 101 341 305 12 48 15
93 12 180 -8 175 -55 285 -151 348 -34 23 -52 27 -107 27 -56 0 -73 -4 -108
-28 -48 -32 -82 -91 -82 -143 0 -45 30 -111 65 -144 l25 -23 0 31 c0 68 50
113 104 92 28 -10 36 -29 36 -81 0 -49 -19 -88 -62 -124 -27 -23 -39 -26 -76
-22 -24 3 -56 13 -71 24 -16 12 -57 80 -106 177 -44 86 -93 173 -108 192 -51
62 -148 94 -230 74z m639 -1710 c223 -28 403 -112 600 -278 66 -56 72 -64 77
-107 9 -82 76 -145 153 -145 42 0 45 -2 68 -48 98 -194 98 -381 0 -582 -40
-82 -60 -108 -143 -190 -62 -62 -118 -107 -159 -129 -35 -18 -65 -31 -68 -29
-2 2 3 38 12 79 8 41 19 120 24 175 21 270 -46 476 -193 591 -47 36 -163 103
-180 103 -4 0 -52 30 -108 66 l-101 65 6 38 c6 37 4 40 -47 79 -29 23 -94 86
-145 141 -51 55 -102 103 -113 106 -12 4 -18 13 -15 21 3 7 0 16 -6 20 -6 4
-8 3 -4 -4 13 -21 -17 -25 -34 -5 -9 12 -25 23 -36 26 -10 3 9 4 44 3 34 -2
65 1 68 5 7 12 202 11 300 -1z m-140 -1357 c9 -40 28 -99 44 -130 16 -32 28
-59 26 -61 -12 -12 -276 126 -276 144 0 2 11 2 24 -2 27 -6 53 16 68 58 6 17
17 28 28 28 10 0 22 6 28 13 15 18 7 75 -14 98 -18 20 -17 21 11 44 l30 23 8
-71 c5 -40 15 -105 23 -144z"/>
</g>
</svg>
